<svg width="29" height="28" viewBox="0 0 29 28" fill="none" xmlns="http://www.w3.org/2000/svg">
<path d="M4.05385 2.14577e-06H7.04185C7.58585 2.14577e-06 8.03385 0.0760021 8.38585 0.228002C8.73785 0.372002 9.01385 0.560002 9.21385 0.792002C9.42185 1.016 9.56585 1.272 9.64585 1.56C9.72585 1.84 9.76585 2.112 9.76585 2.376C9.76585 2.64 9.72585 2.916 9.64585 3.204C9.56585 3.484 9.42185 3.74 9.21385 3.972C9.01385 4.196 8.73785 4.384 8.38585 4.536C8.03385 4.68 7.58585 4.752 7.04185 4.752H5.20585V8.496H4.05385V2.14577e-06ZM5.20585 3.744H6.71785C6.94185 3.744 7.16185 3.728 7.37785 3.696C7.60185 3.656 7.79785 3.588 7.96585 3.492C8.14185 3.396 8.28185 3.26 8.38585 3.084C8.48985 2.9 8.54185 2.664 8.54185 2.376C8.54185 2.088 8.48985 1.856 8.38585 1.68C8.28185 1.496 8.14185 1.356 7.96585 1.26C7.79785 1.164 7.60185 1.1 7.37785 1.068C7.16185 1.028 6.94185 1.008 6.71785 1.008H5.20585V3.744ZM10.9151 3.504C11.2191 3.224 11.5711 3.016 11.9711 2.88C12.3711 2.736 12.7711 2.664 13.1711 2.664C13.5871 2.664 13.9431 2.716 14.2391 2.82C14.5431 2.924 14.7911 3.064 14.9831 3.24C15.1751 3.416 15.3151 3.62 15.4031 3.852C15.4991 4.076 15.5471 4.312 15.5471 4.56V7.464C15.5471 7.664 15.5511 7.848 15.5591 8.016C15.5671 8.184 15.5791 8.344 15.5951 8.496H14.6351C14.6111 8.208 14.5991 7.92 14.5991 7.632H14.5751C14.3351 8 14.0511 8.26 13.7231 8.412C13.3951 8.564 13.0151 8.64 12.5831 8.64C12.3191 8.64 12.0671 8.604 11.8271 8.532C11.5871 8.46 11.3751 8.352 11.1911 8.208C11.0151 8.064 10.8751 7.888 10.7711 7.68C10.6671 7.464 10.6151 7.216 10.6151 6.936C10.6151 6.568 10.6951 6.26 10.8551 6.012C11.0231 5.764 11.2471 5.564 11.5271 5.412C11.8151 5.252 12.1471 5.14 12.5231 5.076C12.9071 5.004 13.3151 4.968 13.7471 4.968H14.5391V4.728C14.5391 4.584 14.5111 4.44 14.4551 4.296C14.3991 4.152 14.3151 4.024 14.2031 3.912C14.0911 3.792 13.9511 3.7 13.7831 3.636C13.6151 3.564 13.4151 3.528 13.1831 3.528C12.9751 3.528 12.7911 3.548 12.6311 3.588C12.4791 3.628 12.3391 3.68 12.2111 3.744C12.0831 3.8 11.9671 3.868 11.8631 3.948C11.7591 4.028 11.6591 4.104 11.5631 4.176L10.9151 3.504ZM13.9631 5.76C13.7071 5.76 13.4431 5.776 13.1711 5.808C12.9071 5.832 12.6631 5.884 12.4391 5.964C12.2231 6.044 12.0431 6.156 11.8991 6.3C11.7631 6.444 11.6951 6.628 11.6951 6.852C11.6951 7.18 11.8031 7.416 12.0191 7.56C12.2431 7.704 12.5431 7.776 12.9191 7.776C13.2151 7.776 13.4671 7.728 13.6751 7.632C13.8831 7.528 14.0511 7.396 14.1791 7.236C14.3071 7.076 14.3991 6.9 14.4551 6.708C14.5111 6.508 14.5391 6.312 14.5391 6.12V5.76H13.9631ZM16.4298 2.808H17.6778L19.3698 7.248H19.3938L21.0018 2.808H22.1658L19.4658 9.72C19.3698 9.968 19.2698 10.192 19.1658 10.392C19.0618 10.6 18.9378 10.776 18.7938 10.92C18.6498 11.064 18.4738 11.176 18.2658 11.256C18.0658 11.336 17.8178 11.376 17.5218 11.376C17.3618 11.376 17.1978 11.364 17.0298 11.34C16.8698 11.324 16.7138 11.284 16.5618 11.22L16.6938 10.236C16.9098 10.324 17.1258 10.368 17.3418 10.368C17.5098 10.368 17.6498 10.344 17.7618 10.296C17.8818 10.256 17.9818 10.192 18.0618 10.104C18.1498 10.024 18.2218 9.928 18.2778 9.816C18.3338 9.704 18.3898 9.576 18.4458 9.432L18.7938 8.532L16.4298 2.808Z" fill="#C1C1CE"/>
<path d="M4.326 25.508H1.46776e-06V23.744L4.046 17.584H6.342V23.744H7.616V25.508H6.342V27.496H4.326V25.508ZM4.326 20.328H4.298L2.1 23.744H4.326V20.328ZM8.41116 22.54C8.41116 21.952 8.46249 21.3547 8.56516 20.748C8.67716 20.1413 8.86849 19.5907 9.13916 19.096C9.41916 18.6013 9.79716 18.2 10.2732 17.892C10.7492 17.5747 11.3558 17.416 12.0932 17.416C12.8305 17.416 13.4372 17.5747 13.9132 17.892C14.3892 18.2 14.7625 18.6013 15.0332 19.096C15.3132 19.5907 15.5045 20.1413 15.6072 20.748C15.7192 21.3547 15.7752 21.952 15.7752 22.54C15.7752 23.128 15.7192 23.7253 15.6072 24.332C15.5045 24.9387 15.3132 25.4893 15.0332 25.984C14.7625 26.4787 14.3892 26.8847 13.9132 27.202C13.4372 27.51 12.8305 27.664 12.0932 27.664C11.3558 27.664 10.7492 27.51 10.2732 27.202C9.79716 26.8847 9.41916 26.4787 9.13916 25.984C8.86849 25.4893 8.67716 24.9387 8.56516 24.332C8.46249 23.7253 8.41116 23.128 8.41116 22.54ZM10.5112 22.54C10.5112 22.8013 10.5205 23.114 10.5392 23.478C10.5672 23.842 10.6325 24.192 10.7352 24.528C10.8378 24.864 10.9918 25.1487 11.1972 25.382C11.4118 25.6153 11.7105 25.732 12.0932 25.732C12.4665 25.732 12.7605 25.6153 12.9752 25.382C13.1898 25.1487 13.3485 24.864 13.4512 24.528C13.5538 24.192 13.6145 23.842 13.6332 23.478C13.6612 23.114 13.6752 22.8013 13.6752 22.54C13.6752 22.2787 13.6612 21.966 13.6332 21.602C13.6145 21.238 13.5538 20.888 13.4512 20.552C13.3485 20.216 13.1898 19.9313 12.9752 19.698C12.7605 19.4647 12.4665 19.348 12.0932 19.348C11.7105 19.348 11.4118 19.4647 11.1972 19.698C10.9918 19.9313 10.8378 20.216 10.7352 20.552C10.6325 20.888 10.5672 21.238 10.5392 21.602C10.5205 21.966 10.5112 22.2787 10.5112 22.54ZM23.3463 24.878C23.3463 24.4953 23.4163 24.136 23.5563 23.8C23.7056 23.464 23.9016 23.17 24.1443 22.918C24.3963 22.666 24.6903 22.47 25.0263 22.33C25.3623 22.1807 25.7216 22.106 26.1043 22.106C26.487 22.106 26.8463 22.1807 27.1823 22.33C27.5183 22.47 27.8076 22.666 28.0503 22.918C28.3023 23.17 28.4983 23.464 28.6383 23.8C28.7876 24.136 28.8623 24.4953 28.8623 24.878C28.8623 25.2607 28.7876 25.6247 28.6383 25.97C28.4983 26.306 28.3023 26.6 28.0503 26.852C27.8076 27.104 27.5183 27.3047 27.1823 27.454C26.8463 27.594 26.487 27.664 26.1043 27.664C25.7216 27.664 25.3623 27.594 25.0263 27.454C24.6903 27.3047 24.3963 27.104 24.1443 26.852C23.9016 26.6 23.7056 26.306 23.5563 25.97C23.4163 25.6247 23.3463 25.2607 23.3463 24.878ZM27.4343 24.878C27.4343 24.5047 27.3036 24.1873 27.0423 23.926C26.7903 23.6647 26.4776 23.534 26.1043 23.534C25.731 23.534 25.4136 23.6647 25.1523 23.926C24.9003 24.1873 24.7743 24.5047 24.7743 24.878C24.7743 25.2607 24.9003 25.5827 25.1523 25.844C25.4136 26.1053 25.731 26.236 26.1043 26.236C26.4776 26.236 26.7903 26.1053 27.0423 25.844C27.3036 25.5827 27.4343 25.2607 27.4343 24.878ZM16.3043 20.188C16.3043 19.8053 16.3743 19.446 16.5143 19.11C16.6636 18.774 16.8596 18.48 17.1023 18.228C17.3543 17.976 17.6483 17.78 17.9843 17.64C18.3203 17.4907 18.6796 17.416 19.0623 17.416C19.445 17.416 19.8043 17.4907 20.1403 17.64C20.4763 17.78 20.7656 17.976 21.0083 18.228C21.2603 18.48 21.4563 18.774 21.5963 19.11C21.7456 19.446 21.8203 19.8053 21.8203 20.188C21.8203 20.5707 21.7456 20.93 21.5963 21.266C21.4563 21.602 21.2603 21.896 21.0083 22.148C20.7656 22.4 20.4763 22.6007 20.1403 22.75C19.8043 22.89 19.445 22.96 19.0623 22.96C18.6796 22.96 18.3203 22.89 17.9843 22.75C17.6483 22.6007 17.3543 22.4 17.1023 22.148C16.8596 21.896 16.6636 21.602 16.5143 21.266C16.3743 20.93 16.3043 20.5707 16.3043 20.188ZM20.3923 20.188C20.3923 19.8147 20.2616 19.4973 20.0003 19.236C19.7483 18.9747 19.4356 18.844 19.0623 18.844C18.689 18.844 18.3716 18.9747 18.1103 19.236C17.8583 19.4973 17.7323 19.8147 17.7323 20.188C17.7323 20.5613 17.8583 20.8787 18.1103 21.14C18.3716 21.4013 18.689 21.532 19.0623 21.532C19.4356 21.532 19.7483 21.4013 20.0003 21.14C20.2616 20.8787 20.3923 20.5613 20.3923 20.188ZM24.8443 17.136L26.0203 17.794L20.2383 27.944L19.1743 27.342L24.8443 17.136Z" fill="#274FED"/>
</svg>
